<svg xmlns="http://www.w3.org/2000/svg" width="359" height="651" fill="none"><path fill="#d8dade" d="M341.07 156.4h1.28a4.953 4.953 0 0 1 1.28.08 1.995 1.995 0 0 1 1.36 1.37c.082.418.109.845.08 1.27v41.56c.028.428.001.858-.08 1.28a2.008 2.008 0 0 1-1.36 1.37 5.716 5.716 0 0 1-1.28.07h-1.28zM341.07 243.5h1.28a5.658 5.658 0 0 1 1.28.07 1.995 1.995 0 0 1 1.36 1.37c.081.421.108.852.08 1.28v88.56c.029.425.002.852-.08 1.27a2.002 2.002 0 0 1-1.36 1.37 5.043 5.043 0 0 1-1.28.08h-1.28z"/><path fill="#f8f9fa" stroke="#bdc1c6" d="M317.05 1h-274c-12.979 0-23.5 10.521-23.5 23.5v602c0 12.979 10.521 23.5 23.5 23.5h274c12.978 0 23.5-10.521 23.5-23.5v-602c0-12.979-10.522-23.5-23.5-23.5z"/><path fill="#fff" d="M307.05 20.5h-254c-9.941 0-18 8.059-18 18v571c0 9.941 8.059 18 18 18h254c9.941 0 18-8.059 18-18v-571c0-9.941-8.059-18-18-18z"/><path fill="#fff" stroke="#bbbfc4" d="M313.05 21h-266c-6.351 0-11.5 5.149-11.5 11.5v586c0 6.351 5.149 11.5 11.5 11.5h266c6.351 0 11.5-5.149 11.5-11.5v-586c0-6.351-5.149-11.5-11.5-11.5z"/><path fill="#f6ba0c" fill-rule="evenodd" d="M181.07 37.82a5.929 5.929 0 0 0-5.928 7.025 5.936 5.936 0 0 0 4.634 4.714 5.931 5.931 0 0 0 7.124-5.808 5.776 5.776 0 0 0-1.656-4.202 5.78 5.78 0 0 0-4.174-1.728zm0 9.53a3.608 3.608 0 0 1-3.905-4.093 3.607 3.607 0 0 1 4.876-2.869 3.61 3.61 0 0 1 2.309 3.363 3.417 3.417 0 0 1-.899 2.463 3.408 3.408 0 0 1-2.381 1.097z" clip-rule="evenodd"/><path fill="#42a652" fill-rule="evenodd" d="M201.07 49.681h2.51v-17.94h-2.51z" clip-rule="evenodd"/><path fill="#e84335" fill-rule="evenodd" d="M211.31 47.311a2.998 2.998 0 0 1-2.82-1.8l7.77-3.28-.26-.67a5.417 5.417 0 0 0-5-3.78 5.577 5.577 0 0 0-5.48 5.93 5.775 5.775 0 0 0 4.048 5.664 5.769 5.769 0 0 0 6.552-2.354l-2-1.35a3.318 3.318 0 0 1-2.81 1.64zm-.18-7.31a2.289 2.289 0 0 1 2.2 1.31l-5.26 2.26a3.207 3.207 0 0 1 3.06-3.53z" clip-rule="evenodd"/><path fill="#2d73e6" fill-rule="evenodd" d="M152.29 39.861v2.51h5.88a5.411 5.411 0 0 1-1.34 3.17 5.998 5.998 0 0 1-4.54 1.84 6.677 6.677 0 0 1-6.68-6.68 6.68 6.68 0 0 1 6.68-6.68 6.149 6.149 0 0 1 4.43 1.8l1.73-1.77a8.413 8.413 0 0 0-6.16-2.55 9.19 9.19 0 1 0 0 18.38 8.147 8.147 0 0 0 6.28-2.57 8.409 8.409 0 0 0 2.13-5.87 8.182 8.182 0 0 0-.13-1.57z" clip-rule="evenodd"/><path fill="#e84335" fill-rule="evenodd" d="M168.07 37.82a5.929 5.929 0 0 0-5.928 7.025 5.936 5.936 0 0 0 4.634 4.714 5.931 5.931 0 0 0 7.124-5.808 5.776 5.776 0 0 0-1.656-4.202 5.78 5.78 0 0 0-4.174-1.728zm0 9.53a3.608 3.608 0 0 1-3.905-4.093 3.607 3.607 0 0 1 4.876-2.869 3.61 3.61 0 0 1 2.309 3.363 3.417 3.417 0 0 1-.899 2.463 3.408 3.408 0 0 1-2.381 1.097z" clip-rule="evenodd"/><path fill="#2d73e6" fill-rule="evenodd" d="M196.63 39.14h-.09a4 4 0 0 0-3.06-1.32 5.998 5.998 0 0 0-5.086 5.93 6 6 0 0 0 5.086 5.93 3.94 3.94 0 0 0 3.06-1.34h.09v.82c0 2.27-1.19 3.49-3.1 3.49a3.228 3.228 0 0 1-2.93-2.12l-2.22.94a5.543 5.543 0 0 0 5.15 3.5c3 0 5.52-1.79 5.52-6.17V38.11h-2.42zm-2.93 8.17c-1.76 0-3.1-1.54-3.1-3.6s1.34-3.59 3.1-3.59 3.1 1.53 3.1 3.61c.04.441-.01.885-.146 1.305a3.285 3.285 0 0 1-2.954 2.275z" clip-rule="evenodd"/><path fill="#fff" stroke="#9aa0a6" d="M64.07 67h234a15.488 15.488 0 0 1 15.5 15.5 15.5 15.5 0 0 1-15.5 15.5h-234a15.5 15.5 0 0 1-15.5-15.5A15.49 15.49 0 0 1 64.07 67z"/><path fill="#989ea4" fill-rule="evenodd" d="m67.35 83.55 4.78 4.78-1.25 1.24-4.81-4.77a5.36 5.36 0 0 1-3.14 1 5.42 5.42 0 1 1 5.41-5.42 5.34 5.34 0 0 1-.99 3.17zm-4.38-6.89a3.75 3.75 0 1 0 3.75 3.75 3.74 3.74 0 0 0-3.75-3.75z" clip-rule="evenodd"/><path fill="#fff" d="M323.11 115H37.37v19h285.74z"/><path fill="#3c4043" d="M48.07 115h52a.501.501 0 0 1 0 1h-52a.513.513 0 0 1-.5-.5.501.501 0 0 1 .5-.5zM56.55 134a2 2 0 0 1 2-2h32a2 2 0 0 1 2 2z"/><path fill="#9aa0a6" stroke="#9aa0a6" stroke-width=".5" d="M125.07 124.25h52a.25.25 0 1 1 0 .5h-52a.249.249 0 0 1-.25-.25.25.25 0 0 1 .25-.25zM202.07 124.25h52a.25.25 0 1 1 0 .5h-52a.25.25 0 1 1 0-.5zM272.32 124.31h52a.25.25 0 1 1 0 .5h-52a.25.25 0 1 1 0-.5z"/><path stroke="#e6e8eb" d="M36.05 134h288"/><path fill="#eff1f2" d="M61.07 234.5h46a13 13 0 0 1 0 26h-46a13 13 0 0 1 0-26zM145.07 234.5h46a13 13 0 0 1 0 26h-46a13.001 13.001 0 0 1-9.193-22.192 13.001 13.001 0 0 1 9.193-3.808zM229.07 234.5h46a13 13 0 0 1 0 26h-46a13.001 13.001 0 0 1-9.193-22.192 13.001 13.001 0 0 1 9.193-3.808zM324.12 234.5h-11.05a13.001 13.001 0 0 0-9.193 22.192 13.001 13.001 0 0 0 9.193 3.808h11.07z"/><path stroke="#e6e8eb" d="M36.05 277h288"/><path fill="#fff" stroke="#9aa0a6" d="M84.05 321c8.56 0 15.5-6.94 15.5-15.5S92.61 290 84.05 290s-15.5 6.94-15.5 15.5 6.94 15.5 15.5 15.5z"/><path fill="#9aa0a6" fill-rule="evenodd" d="M82.87 296.82a1.668 1.668 0 0 1 2.36 0l7.5 7.5a1.655 1.655 0 0 1 .36 1.811 1.655 1.655 0 0 1-.36.539l-7.5 7.5a1.668 1.668 0 0 1-2.36 0l-7.5-7.5a1.654 1.654 0 0 1-.488-1.175 1.661 1.661 0 0 1 .488-1.175zm1.18 1.18-7.5 7.5 2.57 2.57a4.182 4.182 0 0 1 4.1-3.41h1.85l-2.16-2.15 1.16-1.2 4.17 4.17-4.17 4.18-1.18-1.18 2.18-2.17h-2.09a2.217 2.217 0 0 0-1.573.647 2.218 2.218 0 0 0-.647 1.573v1.11l3.33 3.34 7.5-7.5z" clip-rule="evenodd"/><path fill="#fff" stroke="#9aa0a6" d="M148.05 321c8.56 0 15.5-6.94 15.5-15.5s-6.94-15.5-15.5-15.5c-8.561 0-15.5 6.94-15.5 15.5s6.939 15.5 15.5 15.5z"/><path fill="#9aa0a6" d="m151.4 307.55-2.18 2.18a13.467 13.467 0 0 1-5.42-5.42l2.18-2.18a.818.818 0 0 0 .23-.75l-.53-2.72a.852.852 0 0 0-.82-.66h-3.46a.825.825 0 0 0-.83.85 14.869 14.869 0 0 0 2 6.68 14.993 14.993 0 0 0 12.09 7.44.833.833 0 0 0 .794-.505.843.843 0 0 0 .066-.325v-3.46a.84.84 0 0 0-.66-.82l-2.72-.54a.817.817 0 0 0-.74.23z"/><path fill="#fff" stroke="#9aa0a6" d="M212.05 321c8.56 0 15.5-6.94 15.5-15.5s-6.94-15.5-15.5-15.5c-8.561 0-15.5 6.94-15.5 15.5s6.939 15.5 15.5 15.5z"/><path fill="#9aa0a6" fill-rule="evenodd" d="M207.88 298h8.34a1.672 1.672 0 0 1 1.66 1.66V313l-5.83-2.5-5.83 2.5v-13.34a1.668 1.668 0 0 1 1.66-1.66zm4.19 10.68 4.17 1.82v-10.84h-8.34v10.84z" clip-rule="evenodd"/><path fill="#fff" stroke="#9aa0a6" d="M276.05 321c8.56 0 15.5-6.94 15.5-15.5s-6.94-15.5-15.5-15.5c-8.561 0-15.5 6.94-15.5 15.5s6.939 15.5 15.5 15.5z"/><path fill="#9aa0a6" fill-rule="evenodd" d="M279.36 309.5a2.467 2.467 0 0 1 1.69-.67 2.498 2.498 0 0 1 2.452 2.988 2.51 2.51 0 0 1-.684 1.28 2.508 2.508 0 0 1-2.725.542 2.507 2.507 0 0 1-1.543-2.31 2.23 2.23 0 0 1 .08-.58l-5.88-3.44a2.484 2.484 0 0 1-3.468-.052 2.5 2.5 0 0 1 3.468-3.598l5.88-3.42a2.305 2.305 0 0 1-.08-.59 2.509 2.509 0 0 1 4.81-1.013 2.507 2.507 0 0 1-.849 3.053 2.509 2.509 0 0 1-3.161-.21l-5.87 3.42c.043.194.067.391.07.59a2.83 2.83 0 0 1-.07.58zm2.52-9.84a.834.834 0 0 0-.83-.83.83.83 0 1 0 .83.83zm-10.81 6.65a.846.846 0 0 1-.471-.137.847.847 0 0 1-.363-.864.84.84 0 0 1 1.664.171.834.834 0 0 1-.83.83zm9.17 5a.83.83 0 1 0 .83-.83.833.833 0 0 0-.785.508.827.827 0 0 0-.065.322z" clip-rule="evenodd"/><path stroke="#e6e8eb" d="M36.05 333h288M36.05 393h288"/><path fill="#eff1f2" d="M323.93 393.551H243.3v80.63h80.63z"/><path fill="#eff1f2" d="M323.93 393.551H243.3v80.63z"/><path fill="#eff1f2" d="m275.15 442.741-31.85-31.85v63.29z"/><path fill="#fff" d="m324.01 463.961-35.56-34.93-45.15 45.15h80.71z"/><path stroke="#989ea4" d="M324.07 393c-26.8 27.087-53.604 54.18-80.41 81.28M243.75 411.611l31.32 30.77"/><path fill="#9aa0a6" fill-rule="evenodd" d="M60.07 490.5a9.998 9.998 0 0 0-7.071 17.071 9.998 9.998 0 0 0 15.386-1.515A10.002 10.002 0 0 0 60.07 490.5zm0 18a8 8 0 1 1 0-16 8 8 0 0 1 0 16zm1-14v6l4.23 2.94-1.23 1.55-5-3.49v-7z" clip-rule="evenodd"/><path stroke="#e6e8eb" d="M36.05 526h288"/><path fill="#9aa0a6" fill-rule="evenodd" d="M60.07 594.5a9.998 9.998 0 0 0-7.071 17.071 9.998 9.998 0 0 0 15.386-1.515A10.002 10.002 0 0 0 60.07 594.5zm-8 10a8.008 8.008 0 0 1 .21-1.78l4.78 4.78v1a2 2 0 0 0 2 2v1.93a8 8 0 0 1-6.99-7.93zm12 4a2 2 0 0 1 1.9 1.4 7.996 7.996 0 0 0 .191-10.575 8.006 8.006 0 0 0-3.091-2.235v.41a2 2 0 0 1-2 2h-2v2a.999.999 0 0 1-1 1h-2v2h6a.998.998 0 0 1 1 1v3z" clip-rule="evenodd"/><path fill="#9aa0a6" d="m64.07 554.96-2.62 2.62a16.14 16.14 0 0 1-6.5-6.5l2.62-2.62a.996.996 0 0 0 .27-.9l-.64-3.26a1 1 0 0 0-1-.8h-4.13a1.002 1.002 0 0 0-1 1 18.072 18.072 0 0 0 16.94 16.94.998.998 0 0 0 1-1v-4.13a1 1 0 0 0-.8-1l-3.26-.65a1.002 1.002 0 0 0-.88.3z"/><path stroke="#e6e8eb" d="M36.05 578h288"/><path fill="#9aa0a6" fill-rule="evenodd" d="M53.07 431.141a7 7 0 1 1 14 0c0 5.25-7 13-7 13s-7-7.75-7-13zm4.5 0a2.503 2.503 0 0 0 1.543 2.309 2.498 2.498 0 0 0 3.267-3.266 2.5 2.5 0 0 0-2.31-1.543 2.5 2.5 0 0 0-2.52 2.5z" clip-rule="evenodd"/><path stroke="#9aa0a6" stroke-linecap="round" stroke-linejoin="round" d="M83.65 422.1h126.16M83.65 446.17h94.3M83.65 500.131h123.1M82.38 552.09h123.11M81.82 604.041h123.1M48.65 364.26h143.11M48.65 379.65h66.52M48.65 348.861h171.42"/><path fill="#9aa0a6" d="m305.12 368.771 4.5-4.51-4.5-4.52 1.38-1.38 5.9 5.9-5.9 5.89z"/><path fill="#bbbfc4" d="m56.76 186.89 5.15 3.11-1.37-5.86 4.55-3.94-6-.51-2.34-5.52-2.34 5.52-6 .51 4.55 3.94-1.37 5.86zM76.76 186.89l5.15 3.11-1.37-5.86 4.55-3.94-6-.51-2.34-5.52-2.34 5.52-6 .51 4.55 3.94-1.37 5.86zM96.76 186.89l5.15 3.11-1.37-5.86 4.55-3.94-6-.51-2.34-5.52-2.34 5.52-6 .51 4.55 3.94-1.37 5.86zM116.76 186.89l5.15 3.11-1.37-5.86 4.55-3.94-6-.51-2.34-5.52-2.34 5.52-6 .51 4.55 3.94-1.37 5.86zM136.76 186.89l5.15 3.11-1.37-5.86 4.55-3.94-6-.51-2.34-5.52-2.34 5.52-6 .51 4.55 3.94-1.37 5.86z"/><path stroke="#989ea4" stroke-linecap="round" stroke-linejoin="round" d="M48.43 160.441h126.21M49.12 203.721h88.1"/><path fill="#d8dade" d="M301.26 160.54h.81c.258-.018.517-.001.77.05a1.251 1.251 0 0 1 .83.82c.027.26.027.521 0 .78v25.12a3.67 3.67 0 0 1 0 .77 1.2 1.2 0 0 1-.83.82 2.802 2.802 0 0 1-.77.05h-.77z"/><path fill="#989ea4" fill-rule="evenodd" d="m267.25 174.801 5.37-12.09v13.43a3.856 3.856 0 0 0-4 1.35 1.351 1.351 0 0 1-1.35-1.35v-1.34z" clip-rule="evenodd"/><path fill="#e6e8eb" d="M251.07 162.691h21.6l-5.4 12.12h-21.6zM260.53 179.68h-6.75v10.78h6.75zM269.98 179.68h-6.75v5.39h6.75z"/><g fill="#d8dade"><path d="M245.68 174.811h2.7v1.35a1.35 1.35 0 0 1-2.7 0z"/><path d="M248.38 174.811h2.69v1.35a1.35 1.35 0 0 1-2.7 0z"/><path d="M251.07 174.811h2.7v1.35a1.35 1.35 0 1 1-2.7 0zM253.78 174.811h2.7v1.35a1.35 1.35 0 1 1-2.7 0z"/><path d="M256.48 174.811h2.7v1.35a1.349 1.349 0 0 1-2.305.954 1.349 1.349 0 0 1-.395-.954z"/><path d="M259.18 174.811h2.7v1.35a1.35 1.35 0 0 1-2.7 0z"/><path d="M261.88 174.811h2.7v1.35a1.349 1.349 0 0 1-2.305.954 1.349 1.349 0 0 1-.395-.954z"/><path d="M264.58 174.811h2.7v1.35a1.35 1.35 0 0 1-2.7 0zM272.68 159.99a5.402 5.402 0 0 1 5.4 5.41v25.58h-5.4z"/></g><path stroke="#bbbfc4" d="M272.68 159.99a5.402 5.402 0 0 1 5.4 5.41v25.58h-5.4z"/><path fill="#eff1f2" d="M248.28 147.391h57a6.197 6.197 0 0 1 6.19 6.2v57a6.19 6.19 0 0 1-6.19 6.19h-57a6.193 6.193 0 0 1-6.19-6.19v-57a6.2 6.2 0 0 1 6.19-6.2z"/><path fill="#bcc0c5" stroke="#bcc0c5" stroke-miterlimit="10" d="M293.57 200.84h-8.06v-37.86h3a5 5 0 0 1 5 5v32.86z" opacity=".8"/><path fill="#fff" stroke="#989ea4" d="M258.47 200.791h30.01v-37.87h-30.01z"/><path fill="#e6e8eb" d="M275.48 195.49h9.44v-8.08h-9.44zM262.02 200.75h9.93v-16.74h-9.93z"/><path stroke="#989ea4" d="M298.2 180.84v19.56"/><path stroke="#989ea4" stroke-linecap="round" stroke-linejoin="round" d="M295.41 191.01v9.39"/><path fill="#989ea4" d="M293.34 184.951a5.004 5.004 0 0 0 2.439 4.322 5 5 0 0 0 5.231-8.522 3.536 3.536 0 0 0 .532-3.784 3.543 3.543 0 0 0-3.217-2.063 3.547 3.547 0 0 0-3.217 2.063 3.54 3.54 0 0 0 .532 3.784 5.005 5.005 0 0 0-2.3 4.2z"/><path fill="#d8dade" d="M295.46 191.761a4.19 4.19 0 1 0 0-8.38 4.19 4.19 0 0 0 0 8.38z"/><path stroke="#989ea4" stroke-linecap="round" stroke-linejoin="round" d="M302.03 200.771h-48.31"/><path fill="#989ea4" d="M288.28 165.41v14.36h-10.54z"/><path fill="#d8dade" d="M250.33 179.541v1.28a3.682 3.682 0 0 1 2.863-.195 3.682 3.682 0 0 1 2.137 1.915 1.68 1.68 0 0 1 .087-.678 1.683 1.683 0 0 1 .909-.981 1.655 1.655 0 0 1 1.337 0 1.663 1.663 0 0 1 .909.981c.076.218.105.449.088.678a1.666 1.666 0 0 1 1.67-1.67 1.668 1.668 0 0 1 1.67 1.67 1.67 1.67 0 1 1 3.34 0 1.67 1.67 0 1 1 3.34 0 1.68 1.68 0 0 1 .087-.678 1.683 1.683 0 0 1 .909-.981 1.655 1.655 0 0 1 1.337 0 1.663 1.663 0 0 1 .909.981c.076.218.105.449.088.678a1.67 1.67 0 1 1 3.34 0 1.666 1.666 0 0 1 1.67-1.67 1.668 1.668 0 0 1 1.67 1.67 1.7 1.7 0 0 0 1.67-1.72 1.765 1.765 0 0 0 0 .23v-1.51z"/><path fill="#e6e8eb" d="M288.28 165.41H258.1l-7.79 14.19h30.06z"/><path fill="#989ea4" d="M288.69 179.59h-8.3v1.28a3.494 3.494 0 0 1 1.368-.377 3.495 3.495 0 0 1 2.619.931c.35.325.63.718.823 1.156a1.602 1.602 0 0 1 1.6-1.6 1.6 1.6 0 0 1 1.6 1.6c.096.01.193.01.29 0z"/><path fill="#e6e8eb" d="m292.71 473.491-2.24-4.47a7.665 7.665 0 0 0-3.03 4.43zM297.3 473.49c.432-.05.868-.05 1.3 0h2.93l-3.84-7.64c-2.75 1.06-5.29 1.77-7.22 3.16l2.25 4.48z"/><path fill="#e6e8eb" d="M309.31 473.591c-.86-1.95-2-4-2.81-6.44-1.21-3.48.07-4.741-1.39-5.341s-1.38 1.22-4.68 2.85c-.93.46-1.84.84-2.74 1.19l3.88 7.741z"/><path stroke="#e6e8eb" d="M36.05 474h288"/><path fill="#d8dade" d="M340.5 165.911h1.28a5.04 5.04 0 0 1 1.28.08 2.002 2.002 0 0 1 1.36 1.36c.081.422.108.852.08 1.28v41.56c.028.429.001.859-.08 1.28a1.999 1.999 0 0 1-1.36 1.36 4.95 4.95 0 0 1-1.28.08h-1.28z"/><path fill="#eff1f2" d="M241.5 162c0-1.591.632-3.117 1.757-4.243A6.003 6.003 0 0 1 247.5 156h58c1.591 0 3.117.632 4.243 1.757A6.003 6.003 0 0 1 311.5 162v58a6.003 6.003 0 0 1-1.757 4.243A6.003 6.003 0 0 1 305.5 226h-58a6.003 6.003 0 0 1-4.243-1.757A6.003 6.003 0 0 1 241.5 220z"/><path fill="#fff" stroke="#989ea4" d="M292.7 165.5h-34.76v50.28h34.76z"/><path fill="#989ea4" fill-rule="evenodd" d="m284.2 189.5 8.9-20v22.22a6.432 6.432 0 0 0-6.61 2.24 2.241 2.241 0 0 1-2.23-2.24v-2.22z" clip-rule="evenodd"/><path fill="#e6e8eb" d="M257.44 169.461h35.76l-8.94 20.06H248.5zM273.09 197.59h-11.18v17.84h11.18zM288.74 197.59h-11.18v8.92h11.18z"/><path fill="#d8dade" d="M248.5 189.521h4.47v2.23a2.241 2.241 0 0 1-3.765 1.487 2.241 2.241 0 0 1-.705-1.487zM252.97 189.521h4.47v2.23a2.241 2.241 0 0 1-3.765 1.487 2.241 2.241 0 0 1-.705-1.487zM257.44 189.521h4.47v2.23a2.241 2.241 0 0 1-3.765 1.487 2.241 2.241 0 0 1-.705-1.487zM261.91 189.521h4.47v2.23a2.241 2.241 0 0 1-3.765 1.487 2.241 2.241 0 0 1-.705-1.487z"/><path fill="#d8dade" d="M266.38 189.521h4.47v2.23a2.241 2.241 0 0 1-3.765 1.487 2.241 2.241 0 0 1-.705-1.487zM270.85 189.521h4.47v2.23a2.241 2.241 0 0 1-3.765 1.487 2.241 2.241 0 0 1-.705-1.487z"/><path fill="#d8dade" d="M275.32 189.521h4.47v2.23a2.241 2.241 0 0 1-3.765 1.487 2.241 2.241 0 0 1-.705-1.487zM279.79 189.521h4.47v2.23a2.241 2.241 0 0 1-3.766 1.487 2.236 2.236 0 0 1-.704-1.487zM293.2 165a8.94 8.94 0 0 1 8.94 8.94v42.37h-8.94z"/><path stroke="#bbbfc4" d="M293.2 165a8.94 8.94 0 0 1 8.94 8.94v42.37h-8.94z"/><path fill="#acc9f8" d="M35.5 259h288v12h-288z"/><path fill="#3c4043" d="m323.5 271 28-12h-28zM35.5 271l-28-12h28z"/><path fill="#fff" stroke="#3c4043" d="M346.5 143.5h-334C6.149 143.5 1 148.649 1 155v93c0 6.351 5.149 11.5 11.5 11.5h334c6.351 0 11.5-5.149 11.5-11.5v-93c0-6.351-5.149-11.5-11.5-11.5z"/><path fill="#e8f0fe" d="M242.56 144.15h103.83a11 11 0 0 1 11 11V248a11 11 0 0 1-11 11H242.56z"/><path fill="#4285f4" d="M26.5 173h127a2 2 0 0 1 0 4h-127a2 2 0 0 1 0-4z"/><path fill="#bbbfc4" d="m34.5 207.39 5.15 3.11-1.37-5.86 4.55-3.94-6-.51-2.34-5.52-2.34 5.52-6 .51 4.55 3.94-1.37 5.86zM54.5 207.39l5.15 3.11-1.37-5.86 4.55-3.94-6-.51-2.34-5.52-2.34 5.52-6 .51 4.55 3.94-1.37 5.86zM74.5 207.39l5.15 3.11-1.37-5.86 4.55-3.94-6-.51-2.34-5.52-2.34 5.52-6 .51 4.55 3.94-1.37 5.86zM94.5 207.39l5.15 3.11-1.37-5.86 4.55-3.94-6-.51-2.34-5.52-2.34 5.52-6 .51 4.55 3.94-1.37 5.86zM114.5 207.39l5.15 3.11-1.37-5.86 4.55-3.94-6-.51-2.34-5.52-2.34 5.52-6 .51 4.55 3.94-1.37 5.86z"/><path fill="#4285f4" d="M25.5 229h104a.997.997 0 0 1 1 1 .997.997 0 0 1-1 1h-104a.998.998 0 0 1-1-1 1 1 0 0 1 1-1z"/><path fill="#aecbfa" d="M328.07 233.311h-14v-63h8.725a5.36 5.36 0 0 1 3.708 1.472 4.926 4.926 0 0 1 1.535 3.555v57.973z"/><path fill="#fff" stroke="#3f4245" stroke-linecap="round" stroke-linejoin="round" d="M270.07 232.98h49.67v-62.67h-49.67z"/><path fill="#d2e3fc" d="M297.84 223.74h15.62v-13.37h-15.62zM275.56 232.461h16.43v-27.71h-16.43z"/><path stroke="#3f4245" stroke-linecap="round" stroke-linejoin="round" stroke-width=".75" d="M336.07 199.311v34M331.07 216.311v17"/><path fill="#4b7f3f" d="M327.4 206.311a8.252 8.252 0 0 0 8.141 8.216 8.259 8.259 0 0 0 8.355-7.999 8.252 8.252 0 0 0-3.826-7.217 5.86 5.86 0 1 0-8.89 0 8.261 8.261 0 0 0-3.78 7z"/><path fill="#52a850" d="M330.9 217.571a6.93 6.93 0 1 0 0-13.86 6.93 6.93 0 0 0 0 13.86z"/><path stroke="#3f4245" stroke-linecap="round" stroke-linejoin="round" d="M342.04 233.311h-79.97"/><path fill="#3f4245" d="M320.01 173.311v23.77h-17.44z"/><path fill="#f6ba0c" d="M320.01 173.311h-49.96l-12.89 23.48h49.77z"/><path fill="#fff" stroke="#989ea4" stroke-linecap="round" stroke-linejoin="round" d="M317.34 439.441c0 7.29-4.68 10.14-8.71 16.4-2.44 3.77-1.73 6-3.32 6s-.81-2.26-3.24-6c-.69-1.06-1.39-2-2.08-2.92-2.15-2.77-4.23-5-5.49-7.74a13.383 13.383 0 0 1-1.21-5.74 11.908 11.908 0 0 1 2.82-7.71 12 12 0 0 1 12.81-3.73c3.016.979 5.529 3.1 7 5.91a11.947 11.947 0 0 1 1.42 5.53z"/><path fill="#989ea4" d="M305.22 444.2a4.65 4.65 0 1 0 .001-9.299 4.65 4.65 0 0 0-.001 9.299z"/><path fill="#f9ab00" d="M257.07 196.66h6.25v2.875a3.125 3.125 0 1 1-6.25 0zM263.32 196.66h6.25v2.875a3.125 3.125 0 1 1-6.25 0zM269.57 196.66h6.25v2.875a3.125 3.125 0 1 1-6.25 0zM275.82 196.66h6.25v2.875a3.125 3.125 0 1 1-6.25 0zM282.07 196.66h6.25v2.875a3.125 3.125 0 1 1-6.25 0zM288.32 196.66h6.25v2.875a3.125 3.125 0 1 1-6.25 0zM294.57 196.66h6.25v2.875a3.125 3.125 0 1 1-6.25 0zM300.82 196.66h6.25v2.875a3.125 3.125 0 1 1-6.25 0z"/><path fill="#3f4245" d="M307.07 196.66h6.571v2.714a3.286 3.286 0 1 1-6.571 0z"/><path fill="#3f4245" d="M313.641 196.66h6.572v2.714a3.286 3.286 0 1 1-6.572 0z"/></svg>