<svg xmlns="http://www.w3.org/2000/svg" width="359" height="651" fill="none"><path fill="#d8dade" d="M340.35 156.4h1.28a4.95 4.95 0 0 1 1.28.08 1.996 1.996 0 0 1 1.36 1.37c.082.418.109.845.08 1.27v41.56c.028.428.002.858-.08 1.28a2.008 2.008 0 0 1-1.36 1.37 5.716 5.716 0 0 1-1.28.07h-1.28zM340.35 243.5h1.28a5.658 5.658 0 0 1 1.28.07 2.002 2.002 0 0 1 1.36 1.37c.082.421.108.852.08 1.28v88.56c.029.425.002.852-.08 1.27a2.002 2.002 0 0 1-1.36 1.37 5.04 5.04 0 0 1-1.28.08h-1.28z"/><path fill="#f6f7f8" stroke="#bbbfc4" d="M316.33 1h-274c-12.979 0-23.5 10.521-23.5 23.5v602c0 12.979 10.521 23.5 23.5 23.5h274c12.979 0 23.5-10.521 23.5-23.5v-602c0-12.979-10.521-23.5-23.5-23.5z"/><path fill="#fff" d="M306.33 20.5h-254c-9.941 0-18 8.059-18 18v571c0 9.941 8.059 18 18 18h254c9.941 0 18-8.059 18-18v-571c0-9.941-8.059-18-18-18z"/><path fill="#fff" stroke="#bbbfc4" d="M312.33 21h-266c-6.351 0-11.5 5.149-11.5 11.5v586c0 6.351 5.149 11.5 11.5 11.5h266c6.351 0 11.5-5.149 11.5-11.5v-586c0-6.351-5.149-11.5-11.5-11.5z"/><path fill="#f6ba0c" fill-rule="evenodd" d="M180.35 37.821a5.928 5.928 0 0 0-5.928 7.024 5.93 5.93 0 0 0 11.758-1.094 5.775 5.775 0 0 0-3.567-5.49 5.782 5.782 0 0 0-2.263-.44zm0 9.53a3.61 3.61 0 1 1 3.28-3.6 3.398 3.398 0 0 1-.898 2.463 3.418 3.418 0 0 1-2.382 1.097z" clip-rule="evenodd"/><path fill="#42a652" fill-rule="evenodd" d="M200.35 49.681h2.51v-17.94h-2.51z" clip-rule="evenodd"/><path fill="#e84335" fill-rule="evenodd" d="M210.59 47.31a3 3 0 0 1-2.82-1.8l7.77-3.28-.26-.67a5.416 5.416 0 0 0-5-3.78 5.581 5.581 0 0 0-5.48 5.93 5.77 5.77 0 0 0 10.6 3.31l-2-1.35a3.318 3.318 0 0 1-2.81 1.64zm-.18-7.31a2.287 2.287 0 0 1 2.2 1.31l-5.26 2.26a3.2 3.2 0 0 1 3.06-3.53z" clip-rule="evenodd"/><path fill="#2d73e6" fill-rule="evenodd" d="M151.57 39.861v2.51h5.88a5.405 5.405 0 0 1-1.34 3.17 5.994 5.994 0 0 1-4.54 1.84 6.68 6.68 0 0 1 0-13.36 6.145 6.145 0 0 1 4.43 1.8l1.73-1.77a8.403 8.403 0 0 0-6.16-2.55 9.19 9.19 0 1 0 0 18.38 8.154 8.154 0 0 0 6.28-2.57 8.409 8.409 0 0 0 2.13-5.87 8.182 8.182 0 0 0-.13-1.57z" clip-rule="evenodd"/><path fill="#e84335" fill-rule="evenodd" d="M167.35 37.821a5.928 5.928 0 0 0-5.928 7.024 5.93 5.93 0 0 0 11.758-1.094 5.775 5.775 0 0 0-3.567-5.49 5.782 5.782 0 0 0-2.263-.44zm0 9.53a3.61 3.61 0 1 1 3.28-3.6 3.398 3.398 0 0 1-.898 2.463 3.418 3.418 0 0 1-2.382 1.097z" clip-rule="evenodd"/><path fill="#2d73e6" fill-rule="evenodd" d="M195.91 39.141h-.09a3.999 3.999 0 0 0-3.06-1.32 6 6 0 0 0 0 11.86 3.938 3.938 0 0 0 3.06-1.34h.09v.82c0 2.27-1.19 3.49-3.1 3.49a3.228 3.228 0 0 1-2.93-2.12l-2.22.94a5.543 5.543 0 0 0 5.15 3.5c3 0 5.52-1.79 5.52-6.17V38.11h-2.42zm-2.93 8.17c-1.76 0-3.1-1.54-3.1-3.6s1.34-3.59 3.1-3.59 3.1 1.53 3.1 3.61a3.294 3.294 0 0 1-.789 2.448 3.297 3.297 0 0 1-2.311 1.132z" clip-rule="evenodd"/><path fill="#fff" stroke="#bbbfc4" d="M63.35 67h234a15.488 15.488 0 0 1 15.5 15.5 15.5 15.5 0 0 1-15.5 15.5h-234a15.5 15.5 0 0 1-15.5-15.5A15.49 15.49 0 0 1 63.35 67z"/><path fill="#989ea4" fill-rule="evenodd" d="m66.63 83.55 4.78 4.78-1.25 1.24-4.81-4.77a5.36 5.36 0 0 1-3.14 1 5.42 5.42 0 1 1 5.41-5.42 5.34 5.34 0 0 1-.99 3.17zm-4.38-6.89A3.75 3.75 0 1 0 66 80.41a3.74 3.74 0 0 0-3.75-3.75z" clip-rule="evenodd"/><path fill="#fff" d="M322.39 115H36.65v19h285.74z"/><path fill="#3c4043" d="M47.35 115h52a.503.503 0 0 1 .5.5.5.5 0 0 1-.5.5h-52a.513.513 0 0 1-.5-.5.501.501 0 0 1 .5-.5zM55.83 134a2 2 0 0 1 2-2h32a2 2 0 0 1 2 2z"/><path fill="#989ea4" stroke="#989ea4" stroke-width=".5" d="M124.35 124.25h52a.25.25 0 1 1 0 .5h-52a.25.25 0 1 1 0-.5zM201.35 124.25h52a.25.25 0 1 1 0 .5h-52a.25.25 0 1 1 0-.5zM278.35 124.25h44.63a.242.242 0 0 1 .22.25.242.242 0 0 1-.22.25h-44.63a.237.237 0 0 1-.16-.081.238.238 0 0 1-.06-.169.238.238 0 0 1 .06-.169.237.237 0 0 1 .16-.081z"/><path stroke="#e6e8eb" d="M35.33 134h288"/><path fill="#eff1f2" d="M60.35 234.5h46a12.997 12.997 0 0 1 13 13 13 13 0 0 1-13 13h-46a13 13 0 0 1 0-26zM144.35 234.5h46a12.997 12.997 0 0 1 13 13 13 13 0 0 1-13 13h-46a13 13 0 0 1 0-26zM228.35 234.5h46a12.997 12.997 0 0 1 13 13 13 13 0 0 1-13 13h-46a13 13 0 0 1 0-26zM323.4 234.5h-11.05a13 13 0 0 0 0 26h11.07z"/><path stroke="#e6e8eb" d="M35.33 277h288"/><path fill="#fff" stroke="#9aa0a6" d="M83.33 321c8.56 0 15.5-6.94 15.5-15.5S91.89 290 83.33 290c-8.56 0-15.5 6.94-15.5 15.5s6.94 15.5 15.5 15.5z"/><path fill="#989ea4" fill-rule="evenodd" d="M82.15 296.82a1.668 1.668 0 0 1 2.36 0l7.5 7.5a1.655 1.655 0 0 1 .36 1.811 1.655 1.655 0 0 1-.36.539l-7.5 7.5a1.668 1.668 0 0 1-2.36 0l-7.5-7.5a1.654 1.654 0 0 1-.487-1.175 1.663 1.663 0 0 1 .487-1.175zm1.18 1.18-7.5 7.5 2.57 2.57a4.182 4.182 0 0 1 4.1-3.41h1.85l-2.16-2.15 1.16-1.2 4.17 4.17-4.17 4.18-1.18-1.18 2.18-2.17h-2.09a2.217 2.217 0 0 0-1.573.647 2.218 2.218 0 0 0-.647 1.573v1.11l3.33 3.34 7.5-7.5z" clip-rule="evenodd"/><path fill="#fff" stroke="#9aa0a6" d="M147.33 321c8.56 0 15.5-6.94 15.5-15.5s-6.94-15.5-15.5-15.5-15.5 6.94-15.5 15.5 6.94 15.5 15.5 15.5z"/><path fill="#989ea4" d="m150.68 307.55-2.18 2.18a13.48 13.48 0 0 1-5.42-5.42l2.18-2.18a.804.804 0 0 0 .23-.75l-.53-2.72a.851.851 0 0 0-.82-.66h-3.46a.825.825 0 0 0-.83.85 14.882 14.882 0 0 0 2 6.68 15.002 15.002 0 0 0 12.09 7.44.827.827 0 0 0 .86-.83v-3.46a.84.84 0 0 0-.66-.82l-2.72-.54a.817.817 0 0 0-.74.23z"/><path fill="#fff" stroke="#9aa0a6" d="M211.33 321c8.56 0 15.5-6.94 15.5-15.5s-6.94-15.5-15.5-15.5-15.5 6.94-15.5 15.5 6.94 15.5 15.5 15.5z"/><path fill="#989ea4" fill-rule="evenodd" d="M207.16 298h8.34a1.67 1.67 0 0 1 1.66 1.66V313l-5.83-2.5-5.83 2.5v-13.34a1.672 1.672 0 0 1 1.66-1.66zm4.19 10.68 4.17 1.82v-10.84h-8.34v10.84z" clip-rule="evenodd"/><path fill="#fff" stroke="#9aa0a6" d="M275.33 321c8.56 0 15.5-6.94 15.5-15.5s-6.94-15.5-15.5-15.5-15.5 6.94-15.5 15.5 6.94 15.5 15.5 15.5z"/><path fill="#989ea4" fill-rule="evenodd" d="M278.64 309.5a2.47 2.47 0 0 1 1.69-.67 2.504 2.504 0 0 1 2.31 1.543 2.5 2.5 0 1 1-4.81.957 2.23 2.23 0 0 1 .08-.58l-5.88-3.44a2.482 2.482 0 0 1-3.468-.052 2.5 2.5 0 0 1 3.468-3.598l5.88-3.42a2.305 2.305 0 0 1-.08-.59 2.51 2.51 0 1 1 .8 1.83l-5.87 3.42c.044.194.067.391.07.59-.003.195-.026.39-.07.58zm2.52-9.84a.83.83 0 1 0-1.659 0 .83.83 0 0 0 1.659 0zm-10.81 6.65a.84.84 0 1 1 .83-.83.83.83 0 0 1-.83.83zm9.17 5a.83.83 0 1 0 .83-.83.833.833 0 0 0-.785.508.827.827 0 0 0-.065.322z" clip-rule="evenodd"/><path stroke="#e6e8eb" d="M35.33 333h288M35.33 393h288"/><path fill="#eff1f2" d="M323.21 393.551h-80.63v80.63h80.63z"/><path fill="#eff1f2" d="M323.21 393.551h-80.63v80.63z"/><path fill="#eff1f2" d="m274.43 442.741-31.85-31.85v63.29z"/><path fill="#fff" d="m323.29 463.961-35.56-34.93-45.15 45.15h80.71z"/><path stroke="#989ea4" d="M323.35 393c-26.8 27.087-53.603 54.18-80.41 81.28M243.03 411.611l31.32 30.77"/><path fill="#989ea4" fill-rule="evenodd" d="M59.35 490.5a9.998 9.998 0 0 0-7.071 17.071A9.998 9.998 0 0 0 69.35 500.5a10 10 0 0 0-10-10zm0 18a8 8 0 1 1 0-16 8 8 0 0 1 0 16zm1-14v6l4.23 2.94-1.23 1.55-5-3.49v-7z" clip-rule="evenodd"/><path stroke="#e6e8eb" d="M35.33 526h288"/><path fill="#989ea4" fill-rule="evenodd" d="M59.35 594.5a9.998 9.998 0 0 0-7.071 17.071A9.998 9.998 0 0 0 69.35 604.5a10 10 0 0 0-10-10zm-8 10a8.002 8.002 0 0 1 .21-1.78l4.78 4.78v1a2 2 0 0 0 2 2v1.93a8 8 0 0 1-6.99-7.93zm12 4a2 2 0 0 1 1.9 1.4 7.997 7.997 0 0 0 .192-10.575 8.006 8.006 0 0 0-3.092-2.235v.41a2 2 0 0 1-2 2h-2v2a1 1 0 0 1-1 1h-2v2h6a.998.998 0 0 1 1 1v3z" clip-rule="evenodd"/><path fill="#989ea4" d="m63.35 554.96-2.62 2.62a16.14 16.14 0 0 1-6.5-6.5l2.62-2.62a.996.996 0 0 0 .27-.9l-.64-3.26a1 1 0 0 0-1-.8h-4.13a1.002 1.002 0 0 0-1 1 18.071 18.071 0 0 0 16.94 16.94.998.998 0 0 0 1-1v-4.13a1.001 1.001 0 0 0-.8-1l-3.26-.65a1.001 1.001 0 0 0-.88.3z"/><path stroke="#e6e8eb" d="M35.33 578h288"/><path fill="#9aa0a6" fill-rule="evenodd" d="M52.35 431.141a7 7 0 1 1 14 0c0 5.25-7 13-7 13s-7-7.75-7-13zm4.5 0a2.503 2.503 0 0 0 1.543 2.309 2.498 2.498 0 0 0 3.41-1.822 2.5 2.5 0 0 0-2.453-2.987 2.502 2.502 0 0 0-2.328 1.538 2.505 2.505 0 0 0-.192.962z" clip-rule="evenodd"/><path stroke="#9aa0a6" stroke-linecap="round" stroke-linejoin="round" d="M82.93 422.1h126.16M82.93 446.17h94.3"/><path stroke="#989ea4" stroke-linecap="round" stroke-linejoin="round" d="M82.93 500.131h123.1M81.66 552.09h123.11M81.1 604.041h123.1"/><path stroke="#9aa0a6" stroke-linecap="round" stroke-linejoin="round" d="M47.93 364.26h143.11M47.93 379.65h66.52M47.93 348.861h171.42"/><path fill="#9aa0a6" d="m304.4 368.771 4.5-4.51-4.5-4.52 1.38-1.38 5.9 5.9-5.9 5.89zM56.04 186.89l5.15 3.11-1.37-5.86 4.55-3.94-6-.51-2.34-5.52-2.34 5.52-6 .51 4.55 3.94-1.37 5.86zM76.04 186.89l5.15 3.11-1.37-5.86 4.55-3.94-6-.51-2.34-5.52-2.34 5.52-6 .51 4.55 3.94-1.37 5.86zM96.04 186.89l5.15 3.11-1.37-5.86 4.55-3.94-6-.51-2.34-5.52-2.34 5.52-6 .51 4.55 3.94-1.37 5.86zM116.04 186.89l5.15 3.11-1.37-5.86 4.55-3.94-6-.51-2.34-5.52-2.34 5.52-6 .51 4.55 3.94-1.37 5.86zM136.04 186.89l5.15 3.11-1.37-5.86 4.55-3.94-6-.51-2.34-5.52-2.34 5.52-6 .51 4.55 3.94-1.37 5.86z"/><path stroke="#9aa0a6" stroke-linecap="round" stroke-linejoin="round" d="M47.71 160.441h126.21M48.4 203.721h88.1"/><path fill="#d8dade" d="M300.54 160.54h.81c.258-.018.517-.001.77.05a1.241 1.241 0 0 1 .83.82c.027.26.027.521 0 .78v25.12a3.54 3.54 0 0 1 0 .77 1.19 1.19 0 0 1-.309.518 1.182 1.182 0 0 1-.521.302 2.802 2.802 0 0 1-.77.05h-.77z"/><path fill="#989ea4" fill-rule="evenodd" d="m266.53 174.801 5.37-12.09v13.43a3.856 3.856 0 0 0-4 1.35 1.342 1.342 0 0 1-.954-.395 1.359 1.359 0 0 1-.396-.955v-1.34z" clip-rule="evenodd"/><path fill="#e6e8eb" d="M250.35 162.691h21.6l-5.4 12.12h-21.6zM259.81 179.68h-6.75v10.78h6.75zM269.26 179.68h-6.75v5.39h6.75z"/><g fill="#d8dade"><path d="M244.96 174.811h2.7v1.35a1.349 1.349 0 0 1-2.305.954 1.349 1.349 0 0 1-.395-.954z"/><path d="M247.66 174.811h2.69v1.35a1.349 1.349 0 0 1-2.305.954 1.349 1.349 0 0 1-.395-.954z"/><path d="M250.35 174.811h2.7v1.35a1.349 1.349 0 0 1-2.305.954 1.349 1.349 0 0 1-.395-.954zM253.06 174.811h2.7v1.35a1.349 1.349 0 0 1-2.305.954 1.349 1.349 0 0 1-.395-.954z"/><path d="M255.76 174.811h2.7v1.35a1.349 1.349 0 0 1-2.304.954 1.35 1.35 0 0 1-.396-.954z"/><path d="M258.46 174.811h2.7v1.35a1.349 1.349 0 0 1-2.305.954 1.349 1.349 0 0 1-.395-.954z"/><path d="M261.16 174.811h2.7v1.35a1.349 1.349 0 0 1-2.304.954 1.346 1.346 0 0 1-.396-.954z"/><path d="M263.86 174.811h2.7v1.35a1.35 1.35 0 1 1-2.7 0zM271.96 159.99a5.402 5.402 0 0 1 5.4 5.41v25.58h-5.4z"/></g><path stroke="#bbbfc4" d="M271.96 159.99a5.402 5.402 0 0 1 5.4 5.41v25.58h-5.4z"/><path fill="#eff1f2" d="M247.56 147.391h57a6.2 6.2 0 0 1 6.19 6.2v57a6.19 6.19 0 0 1-6.19 6.19h-57a6.193 6.193 0 0 1-6.19-6.19v-57a6.201 6.201 0 0 1 6.19-6.2z"/><path fill="#bcc0c5" stroke="#bcc0c5" stroke-miterlimit="10" d="M292.85 200.84h-8.06v-37.86h3c1.326 0 2.598.527 3.536 1.464a5.004 5.004 0 0 1 1.464 3.536v32.86z" opacity=".8"/><path fill="#fff" stroke="#989ea4" d="M257.75 200.791h30.01v-37.87h-30.01z"/><path fill="#e6e8eb" d="M274.76 195.49h9.44v-8.08h-9.44zM261.3 200.75h9.93v-16.74h-9.93z"/><path stroke="#989ea4" d="M297.48 180.84v19.56"/><path stroke="#989ea4" stroke-linecap="round" stroke-linejoin="round" d="M294.69 191.01v9.39"/><path fill="#989ea4" d="M292.62 184.951a4.995 4.995 0 0 0 2.44 4.322 4.994 4.994 0 0 0 4.962.091 4.997 4.997 0 0 0 2.596-4.229 5.005 5.005 0 0 0-2.328-4.384 3.538 3.538 0 0 0-.774-5.287 3.544 3.544 0 0 0-3.822 0 3.543 3.543 0 0 0-1.594 3.473c.094.671.379 1.301.82 1.814a5.002 5.002 0 0 0-2.3 4.2z"/><path fill="#d8dade" d="M294.74 191.761a4.19 4.19 0 1 0 0-8.38 4.19 4.19 0 0 0 0 8.38z"/><path stroke="#989ea4" stroke-linecap="round" stroke-linejoin="round" d="M301.31 200.771H253"/><path fill="#989ea4" d="M287.56 165.41v14.36h-10.54z"/><path fill="#d8dade" d="M249.61 179.541v1.28a3.682 3.682 0 0 1 2.863-.195 3.682 3.682 0 0 1 2.137 1.915 1.664 1.664 0 0 1 .439-1.263 1.673 1.673 0 0 1 2.452 0 1.665 1.665 0 0 1 .439 1.263 1.67 1.67 0 1 1 3.34 0 1.67 1.67 0 1 1 3.34 0 1.67 1.67 0 1 1 3.34 0 1.68 1.68 0 0 1 .087-.678 1.683 1.683 0 0 1 .909-.981 1.658 1.658 0 0 1 1.338 0 1.673 1.673 0 0 1 .996 1.659 1.67 1.67 0 1 1 3.34 0 1.67 1.67 0 1 1 3.34 0 1.699 1.699 0 0 0 1.67-1.72 1.765 1.765 0 0 0 0 .23v-1.51z"/><path fill="#e6e8eb" d="M287.56 165.41h-30.18l-7.79 14.19h30.06z"/><path fill="#989ea4" d="M287.97 179.59h-8.3v1.28a3.503 3.503 0 0 1 3.987.554c.35.325.63.718.823 1.156a1.598 1.598 0 0 1 2.731-1.132c.3.301.469.707.469 1.132.096.01.194.01.29 0z"/><path fill="#e6e8eb" d="m291.99 473.491-2.24-4.47a7.665 7.665 0 0 0-3.03 4.43zM296.58 473.49c.432-.05.868-.05 1.3 0h2.93l-3.84-7.64c-2.75 1.06-5.29 1.77-7.22 3.16l2.25 4.48z"/><path fill="#e6e8eb" d="M308.59 473.591c-.86-1.95-2-4-2.81-6.44-1.21-3.48.07-4.741-1.39-5.341s-1.38 1.22-4.68 2.85c-.93.46-1.84.84-2.74 1.19l3.88 7.741z"/><path stroke="#e6e8eb" d="M35.33 474h288"/><path fill="#fff" stroke="#989ea4" stroke-linecap="round" stroke-linejoin="round" d="M316.62 439.441c0 7.29-4.68 10.14-8.71 16.4-2.44 3.77-1.73 6-3.32 6s-.81-2.26-3.24-6c-.69-1.06-1.39-2-2.08-2.92-2.15-2.77-4.23-5-5.49-7.74a13.397 13.397 0 0 1-1.21-5.74 11.913 11.913 0 0 1 2.82-7.71 12 12 0 0 1 12.81-3.73 12.12 12.12 0 0 1 7 5.91 11.935 11.935 0 0 1 1.42 5.53z"/><path fill="#989ea4" d="M304.5 444.2a4.65 4.65 0 1 0 .001-9.299 4.65 4.65 0 0 0-.001 9.299z"/><path fill="#acc9f8" d="M35.42 606.65h288v12h-288z"/><path fill="#3c4043" d="m323.42 618.65 28-12h-28zM35.42 618.65l-28-12h28z"/><path fill="#fff" stroke="#3c4043" d="M346.5 491.531h-334c-6.351 0-11.5 5.149-11.5 11.5v93c0 6.352 5.149 11.5 11.5 11.5h334c6.351 0 11.5-5.148 11.5-11.5v-93c0-6.351-5.149-11.5-11.5-11.5z"/><path stroke="#4285f4" stroke-linecap="round" stroke-linejoin="round" stroke-width="2" d="M74.13 520.221h146.61M74.13 577.781h146.61"/><path stroke="#e7e8ec" stroke-linecap="round" stroke-linejoin="round" d="m2.49 548.82 354 .24"/><path fill="#4285f4" d="M41.56 567.121a10.656 10.656 0 0 0-9.849 6.581 10.66 10.66 0 1 0 9.849-6.581zm-8.53 10.66c.002-.64.075-1.277.22-1.9l5.1 5.09v1.07a2.14 2.14 0 0 0 2.13 2.13v2.06a8.54 8.54 0 0 1-7.45-8.45zm14.81 5.75a2.128 2.128 0 0 0-2-1.49h-1.07v-3.2a1.073 1.073 0 0 0-1.06-1.06h-6.4v-2.14h2.13a1.068 1.068 0 0 0 1.07-1.06v-2.13h2.13a2.142 2.142 0 0 0 2.13-2.14v-.43a8.488 8.488 0 0 1 3.1 13.65zM36.76 510.62h-3.73a1.068 1.068 0 0 0-1.07 1.07 18.13 18.13 0 0 0 18.13 18.12 1.069 1.069 0 0 0 1.06-1.06v-3.72a1.07 1.07 0 0 0-1.06-1.07 12.029 12.029 0 0 1-3.81-.61.962.962 0 0 0-.33 0 1.117 1.117 0 0 0-.76.31L42.85 526a16.112 16.112 0 0 1-7-7l2.35-2.35a1.001 1.001 0 0 0 .26-1.08 12.303 12.303 0 0 1-.6-3.81 1.076 1.076 0 0 0-.298-.814 1.072 1.072 0 0 0-.802-.326z"/></svg>