<svg xmlns="http://www.w3.org/2000/svg" width="359" height="651" fill="none"><path fill="#d8dade" d="M340.29 156.4h1.28a4.95 4.95 0 0 1 1.28.08 1.996 1.996 0 0 1 1.36 1.37c.082.418.109.845.08 1.27v41.56c.028.428.002.858-.08 1.28a2.008 2.008 0 0 1-1.36 1.37 5.716 5.716 0 0 1-1.28.07h-1.28zM340.29 243.5h1.28a5.658 5.658 0 0 1 1.28.07 2.002 2.002 0 0 1 1.36 1.37c.082.421.108.852.08 1.28v88.56c.029.425.002.852-.08 1.27a2.002 2.002 0 0 1-1.36 1.37 5.04 5.04 0 0 1-1.28.08h-1.28z"/><path fill="#f6f7f8" stroke="#bbbfc4" d="M316.27 1h-274c-12.978 0-23.5 10.521-23.5 23.5v602c0 12.979 10.522 23.5 23.5 23.5h274c12.979 0 23.5-10.521 23.5-23.5v-602c0-12.979-10.521-23.5-23.5-23.5z"/><path fill="#fff" d="M306.27 20.5h-254c-9.94 0-18 8.059-18 18v571c0 9.941 8.06 18 18 18h254c9.942 0 18-8.059 18-18v-571c0-9.941-8.058-18-18-18z"/><path fill="#fff" stroke="#bbbfc4" d="M312.27 21h-266c-6.35 0-11.5 5.149-11.5 11.5v586c0 6.351 5.15 11.5 11.5 11.5h266c6.352 0 11.5-5.149 11.5-11.5v-586c0-6.351-5.148-11.5-11.5-11.5z"/><path fill="#f6ba0c" fill-rule="evenodd" d="M180.29 37.82a5.928 5.928 0 0 0-5.928 7.025 5.93 5.93 0 0 0 11.758-1.094 5.775 5.775 0 0 0-3.567-5.49 5.784 5.784 0 0 0-2.263-.44zm0 9.53a3.61 3.61 0 1 1 3.28-3.6 3.416 3.416 0 0 1-.898 2.464 3.42 3.42 0 0 1-2.382 1.097z" clip-rule="evenodd"/><path fill="#42a652" fill-rule="evenodd" d="M200.29 49.681h2.51v-17.94h-2.51z" clip-rule="evenodd"/><path fill="#e84335" fill-rule="evenodd" d="M210.53 47.31a3 3 0 0 1-2.82-1.8l7.77-3.28-.26-.67a5.416 5.416 0 0 0-5-3.78 5.581 5.581 0 0 0-5.48 5.93 5.77 5.77 0 0 0 10.6 3.31l-2-1.35a3.318 3.318 0 0 1-2.81 1.64zm-.18-7.31a2.289 2.289 0 0 1 2.2 1.31l-5.26 2.26a3.2 3.2 0 0 1 3.06-3.53z" clip-rule="evenodd"/><path fill="#2d73e6" fill-rule="evenodd" d="M151.51 39.861v2.51h5.88a5.405 5.405 0 0 1-1.34 3.17 5.994 5.994 0 0 1-4.54 1.84 6.68 6.68 0 0 1 0-13.36 6.145 6.145 0 0 1 4.43 1.8l1.73-1.77a8.403 8.403 0 0 0-6.16-2.55 9.19 9.19 0 1 0 0 18.38 8.147 8.147 0 0 0 6.28-2.57 8.409 8.409 0 0 0 2.13-5.87 8.182 8.182 0 0 0-.13-1.57z" clip-rule="evenodd"/><path fill="#e84335" fill-rule="evenodd" d="M167.29 37.82a5.928 5.928 0 0 0-5.928 7.025 5.93 5.93 0 0 0 11.758-1.094 5.775 5.775 0 0 0-3.567-5.49 5.784 5.784 0 0 0-2.263-.44zm0 9.53a3.61 3.61 0 1 1 3.28-3.6 3.416 3.416 0 0 1-.898 2.464 3.42 3.42 0 0 1-2.382 1.097z" clip-rule="evenodd"/><path fill="#2d73e6" fill-rule="evenodd" d="M195.85 39.141h-.09a3.999 3.999 0 0 0-3.06-1.32 6 6 0 0 0 0 11.86 3.938 3.938 0 0 0 3.06-1.34h.09v.82c0 2.27-1.19 3.49-3.1 3.49a3.228 3.228 0 0 1-2.93-2.12l-2.22.94a5.543 5.543 0 0 0 5.15 3.5c3 0 5.52-1.79 5.52-6.17V38.11h-2.42zm-2.93 8.17c-1.76 0-3.1-1.54-3.1-3.6s1.34-3.59 3.1-3.59 3.1 1.53 3.1 3.61a3.294 3.294 0 0 1-.789 2.448 3.297 3.297 0 0 1-2.311 1.132z" clip-rule="evenodd"/><path fill="#fff" stroke="#bbbfc4" d="M63.29 67h234a15.488 15.488 0 0 1 15.5 15.5 15.5 15.5 0 0 1-15.5 15.5h-234a15.5 15.5 0 0 1-15.5-15.5A15.49 15.49 0 0 1 63.29 67z"/><path fill="#989ea4" fill-rule="evenodd" d="m66.57 83.55 4.78 4.78-1.25 1.24-4.81-4.77a5.36 5.36 0 0 1-3.14 1 5.42 5.42 0 1 1 5.41-5.42 5.34 5.34 0 0 1-.99 3.17zm-4.38-6.89a3.75 3.75 0 1 0 3.75 3.75 3.74 3.74 0 0 0-3.75-3.75z" clip-rule="evenodd"/><path fill="#fff" d="M322.33 115H36.59v19h285.74z"/><path fill="#3c4043" d="M47.29 115h52a.503.503 0 0 1 .5.5.501.501 0 0 1-.5.5h-52a.513.513 0 0 1-.5-.5.5.5 0 0 1 .5-.5zM55.77 134a2 2 0 0 1 2-2h32a2 2 0 0 1 2 2z"/><path fill="#989ea4" stroke="#989ea4" stroke-width=".5" d="M124.29 124.25h52a.249.249 0 0 1 .25.25.25.25 0 0 1-.25.25h-52a.252.252 0 0 1-.25-.25.252.252 0 0 1 .25-.25zM201.291 124.25h52a.252.252 0 0 1 .25.25.252.252 0 0 1-.25.25h-52a.249.249 0 0 1-.25-.25.25.25 0 0 1 .25-.25zM278.291 124.25h44.63a.242.242 0 0 1 .22.25.242.242 0 0 1-.22.25h-44.63a.24.24 0 0 1-.22-.25.24.24 0 0 1 .22-.25z"/><path stroke="#e6e8eb" d="M35.27 134h288"/><path fill="#eff1f2" d="M60.29 234.5h46a13 13 0 0 1 0 26h-46a13 13 0 0 1 0-26zM144.29 234.5h46a13 13 0 0 1 0 26h-46a13 13 0 0 1 0-26zM228.29 234.5h46a13 13 0 0 1 0 26h-46a13 13 0 0 1 0-26zM323.34 234.5h-11.05a13 13 0 0 0 0 26h11.07z"/><path stroke="#e6e8eb" d="M35.27 277h288"/><path fill="#fff" stroke="#9aa0a6" d="M83.27 321c8.56 0 15.5-6.94 15.5-15.5S91.83 290 83.27 290s-15.5 6.94-15.5 15.5 6.94 15.5 15.5 15.5z"/><path fill="#989ea4" fill-rule="evenodd" d="M82.09 296.82a1.668 1.668 0 0 1 2.36 0l7.5 7.5a1.654 1.654 0 0 1 .488 1.175 1.663 1.663 0 0 1-.487 1.175l-7.5 7.5a1.668 1.668 0 0 1-2.36 0l-7.5-7.5a1.654 1.654 0 0 1-.488-1.175 1.661 1.661 0 0 1 .488-1.175zm1.18 1.18-7.5 7.5 2.57 2.57a4.182 4.182 0 0 1 4.1-3.41h1.85l-2.16-2.15 1.16-1.2 4.17 4.17-4.17 4.18-1.18-1.18 2.18-2.17H82.2a2.217 2.217 0 0 0-1.572.647 2.218 2.218 0 0 0-.648 1.573v1.11l3.33 3.34 7.5-7.5z" clip-rule="evenodd"/><path fill="#fff" stroke="#9aa0a6" d="M147.27 321c8.561 0 15.5-6.94 15.5-15.5s-6.939-15.5-15.5-15.5c-8.56 0-15.5 6.94-15.5 15.5s6.94 15.5 15.5 15.5z"/><path fill="#989ea4" d="m150.621 307.55-2.18 2.18a13.476 13.476 0 0 1-5.421-5.42l2.18-2.18a.804.804 0 0 0 .231-.75l-.531-2.72a.845.845 0 0 0-.82-.66h-3.459a.83.83 0 0 0-.598.247.832.832 0 0 0-.233.603 14.894 14.894 0 0 0 2 6.68 15.005 15.005 0 0 0 12.091 7.44.825.825 0 0 0 .794-.505.843.843 0 0 0 .066-.325v-3.46a.846.846 0 0 0-.661-.82l-2.719-.54a.817.817 0 0 0-.74.23z"/><path fill="#fff" stroke="#9aa0a6" d="M211.271 321c8.56 0 15.5-6.94 15.5-15.5s-6.94-15.5-15.5-15.5c-8.561 0-15.5 6.94-15.5 15.5s6.939 15.5 15.5 15.5z"/><path fill="#989ea4" fill-rule="evenodd" d="M207.101 298h8.34a1.668 1.668 0 0 1 1.66 1.66V313l-5.83-2.5-5.83 2.5v-13.34a1.668 1.668 0 0 1 1.66-1.66zm4.19 10.68 4.17 1.82v-10.84h-8.34v10.84z" clip-rule="evenodd"/><path fill="#fff" stroke="#9aa0a6" d="M275.271 321c8.56 0 15.5-6.94 15.5-15.5s-6.94-15.5-15.5-15.5c-8.561 0-15.5 6.94-15.5 15.5s6.939 15.5 15.5 15.5z"/><path fill="#989ea4" fill-rule="evenodd" d="M278.581 309.5a2.466 2.466 0 0 1 1.69-.67 2.503 2.503 0 0 1 2.309 1.543 2.5 2.5 0 1 1-4.809.957 2.23 2.23 0 0 1 .08-.58l-5.88-3.44a2.486 2.486 0 0 1-3.468-.052 2.5 2.5 0 0 1 3.468-3.598l5.88-3.42a2.305 2.305 0 0 1-.08-.59 2.509 2.509 0 0 1 4.809-1.013 2.507 2.507 0 0 1-.848 3.053 2.51 2.51 0 0 1-3.161-.21l-5.87 3.42c.043.194.067.391.07.59a2.83 2.83 0 0 1-.07.58zm2.52-9.84a.83.83 0 1 0-1.661.002.83.83 0 0 0 1.661-.002zm-10.81 6.65a.846.846 0 0 1-.785-.514.847.847 0 0 1 .181-.92.837.837 0 0 1 .92-.18.835.835 0 0 1 .376.314c.092.139.14.303.138.47a.83.83 0 0 1-.83.83zm9.17 5a.83.83 0 1 0 .83-.83.833.833 0 0 0-.785.508.827.827 0 0 0-.065.322z" clip-rule="evenodd"/><path stroke="#e6e8eb" d="M35.27 333h288M35.27 393h288"/><path fill="#eff1f2" d="M323.151 393.551h-80.63v80.63h80.63z"/><path fill="#eff1f2" d="M323.151 393.551h-80.63v80.63z"/><path fill="#eff1f2" d="m274.371 442.741-31.85-31.85v63.29z"/><path fill="#fff" d="m323.231 463.961-35.56-34.93-45.15 45.15h80.71z"/><path stroke="#989ea4" d="M323.29 393c-26.8 27.087-53.603 54.18-80.41 81.28M242.97 411.611l31.32 30.77"/><path fill="#9aa0a6" fill-rule="evenodd" d="M59.29 490.5a9.998 9.998 0 0 0-9.808 11.951 9.997 9.997 0 0 0 7.857 7.857A9.998 9.998 0 0 0 69.29 500.5a10 10 0 0 0-10-10zm0 18a8 8 0 1 1 0-16 8 8 0 0 1 0 16zm1-14v6l4.23 2.94-1.23 1.55-5-3.49v-7z" clip-rule="evenodd"/><path stroke="#e6e8eb" d="M35.27 526h288"/><path fill="#9aa0a6" fill-rule="evenodd" d="M59.29 594.5a9.998 9.998 0 0 0-9.808 11.951 9.997 9.997 0 0 0 7.857 7.857A9.998 9.998 0 0 0 69.29 604.5a10 10 0 0 0-10-10zm-8 10a8.008 8.008 0 0 1 .21-1.78l4.78 4.78v1a2 2 0 0 0 2 2v1.93a8 8 0 0 1-6.99-7.93zm12 4a2 2 0 0 1 1.9 1.4 7.996 7.996 0 0 0 .192-10.575 8.006 8.006 0 0 0-3.092-2.235v.41a2 2 0 0 1-2 2h-2v2a.999.999 0 0 1-1 1h-2v2h6a.998.998 0 0 1 1 1v3z" clip-rule="evenodd"/><path fill="#9aa0a6" d="m63.29 554.96-2.62 2.62a16.141 16.141 0 0 1-6.5-6.5l2.62-2.62a.996.996 0 0 0 .27-.9l-.64-3.26a1 1 0 0 0-1-.8h-4.13a1.002 1.002 0 0 0-1 1 18.072 18.072 0 0 0 16.94 16.94.998.998 0 0 0 1-1v-4.13a1 1 0 0 0-.8-1l-3.26-.65a1.002 1.002 0 0 0-.88.3z"/><path stroke="#e6e8eb" d="M35.27 578h288"/><path fill="#989ea4" fill-rule="evenodd" d="M52.29 431.141a7 7 0 1 1 14 0c0 5.25-7 13-7 13s-7-7.75-7-13zm4.5 0a2.504 2.504 0 0 0 1.543 2.309 2.498 2.498 0 0 0 3.267-3.266 2.5 2.5 0 0 0-2.31-1.543 2.501 2.501 0 0 0-2.52 2.5z" clip-rule="evenodd"/><path stroke="#989ea4" stroke-linecap="round" stroke-linejoin="round" d="M82.87 422.1h126.16M82.87 446.17h94.3"/><path stroke="#9aa0a6" stroke-linecap="round" stroke-linejoin="round" d="M82.87 500.131h123.1M81.6 552.09h123.11M81.04 604.041h123.1"/><path stroke="#989ea4" stroke-linecap="round" stroke-linejoin="round" d="M47.87 364.26h143.11M47.87 379.65h66.52"/><path stroke="#9aa0a6" stroke-linecap="round" stroke-linejoin="round" d="M47.87 348.861h171.42"/><path fill="#989ea4" d="m304.34 368.771 4.5-4.51-4.5-4.52 1.38-1.38 5.9 5.9-5.9 5.89z"/><path fill="#9aa0a6" d="m55.98 186.89 5.15 3.11-1.37-5.86 4.55-3.94-6-.51-2.34-5.52-2.34 5.52-6 .51 4.55 3.94-1.37 5.86zM75.98 186.89l5.15 3.11-1.37-5.86 4.55-3.94-6-.51-2.34-5.52-2.34 5.52-6 .51 4.55 3.94-1.37 5.86zM95.98 186.89l5.15 3.11-1.37-5.86 4.55-3.94-6-.51-2.34-5.52-2.34 5.52-6 .51 4.55 3.94-1.37 5.86zM115.98 186.89l5.15 3.11-1.37-5.86 4.55-3.94-6-.51-2.34-5.52-2.34 5.52-6 .51 4.55 3.94-1.37 5.86zM135.98 186.89l5.15 3.11-1.37-5.86 4.55-3.94-6-.51-2.34-5.52-2.34 5.52-6 .51 4.55 3.94-1.37 5.86z"/><path stroke="#9aa0a6" stroke-linecap="round" stroke-linejoin="round" d="M47.65 160.441h126.21M48.34 203.721h88.1"/><path fill="#d8dade" d="M300.48 160.54h.81c.258-.018.517-.001.77.05a1.23 1.23 0 0 1 .83.82c.028.26.028.521 0 .78v25.12a3.54 3.54 0 0 1 0 .77 1.198 1.198 0 0 1-.83.82 2.802 2.802 0 0 1-.77.05h-.77z"/><path fill="#989ea4" fill-rule="evenodd" d="m266.47 174.801 5.37-12.09v13.43a3.856 3.856 0 0 0-4 1.35 1.347 1.347 0 0 1-1.35-1.35v-1.34z" clip-rule="evenodd"/><path fill="#e6e8eb" d="M250.29 162.691h21.6l-5.4 12.12h-21.6zM259.75 179.68H253v10.78h6.75zM269.2 179.68h-6.75v5.39h6.75z"/><g fill="#d8dade"><path d="M244.9 174.811h2.7v1.35a1.349 1.349 0 0 1-2.304.954 1.35 1.35 0 0 1-.396-.954z"/><path d="M247.6 174.811h2.69v1.35a1.35 1.35 0 1 1-2.7 0z"/><path d="M250.29 174.811h2.7v1.35a1.349 1.349 0 0 1-2.305.954 1.349 1.349 0 0 1-.395-.954zM253 174.811h2.7v1.35a1.349 1.349 0 0 1-2.305.954 1.349 1.349 0 0 1-.395-.954z"/><path d="M255.7 174.811h2.7v1.35a1.349 1.349 0 0 1-2.304.954 1.346 1.346 0 0 1-.396-.954z"/><path d="M258.4 174.811h2.7v1.35a1.349 1.349 0 0 1-2.304.954 1.35 1.35 0 0 1-.396-.954z"/><path d="M261.1 174.811h2.7v1.35a1.35 1.35 0 0 1-2.7 0z"/><path d="M263.8 174.811h2.7v1.35a1.35 1.35 0 1 1-2.7 0zM271.9 159.99a5.402 5.402 0 0 1 5.4 5.41v25.58h-5.4z"/></g><path stroke="#bbbfc4" d="M271.9 159.99a5.402 5.402 0 0 1 5.4 5.41v25.58h-5.4z"/><path fill="#eff1f2" d="M247.5 147.391h57a6.197 6.197 0 0 1 6.19 6.2v57a6.195 6.195 0 0 1-1.813 4.377 6.195 6.195 0 0 1-4.377 1.813h-57a6.192 6.192 0 0 1-6.19-6.19v-57a6.2 6.2 0 0 1 6.19-6.2z"/><path fill="#bcc0c5" stroke="#bcc0c5" stroke-miterlimit="10" d="M292.79 200.84h-8.06v-37.86h3c1.326 0 2.598.527 3.536 1.464a5.004 5.004 0 0 1 1.464 3.536v32.86z" opacity=".8"/><path fill="#fff" stroke="#989ea4" d="M257.69 200.791h30.01v-37.87h-30.01z"/><path fill="#e6e8eb" d="M274.7 195.49h9.44v-8.08h-9.44zM261.24 200.75h9.93v-16.74h-9.93z"/><path stroke="#989ea4" d="M297.42 180.84v19.56"/><path stroke="#989ea4" stroke-linecap="round" stroke-linejoin="round" d="M294.63 191.01v9.39"/><path fill="#989ea4" d="M292.56 184.951a4.994 4.994 0 0 0 2.439 4.322 5 5 0 0 0 5.231-8.522 3.536 3.536 0 0 0 .532-3.784 3.539 3.539 0 1 0-5.902 3.784 4.996 4.996 0 0 0-2.3 4.2z"/><path fill="#d8dade" d="M294.68 191.761a4.19 4.19 0 1 0 0-8.38 4.19 4.19 0 0 0 0 8.38z"/><path stroke="#989ea4" stroke-linecap="round" stroke-linejoin="round" d="M301.25 200.771h-48.31"/><path fill="#989ea4" d="M287.5 165.41v14.36h-10.54z"/><path fill="#d8dade" d="M249.55 179.541v1.28a3.682 3.682 0 0 1 2.863-.195 3.682 3.682 0 0 1 2.137 1.915 1.68 1.68 0 0 1 .087-.678 1.683 1.683 0 0 1 .909-.981 1.658 1.658 0 0 1 1.338 0c.211.092.4.227.556.396a1.653 1.653 0 0 1 .44 1.263 1.67 1.67 0 1 1 3.34 0 1.67 1.67 0 1 1 3.34 0 1.67 1.67 0 1 1 3.34 0 1.68 1.68 0 0 1 .087-.678 1.683 1.683 0 0 1 .909-.981 1.658 1.658 0 0 1 1.338 0c.211.092.4.227.556.396a1.653 1.653 0 0 1 .44 1.263 1.67 1.67 0 1 1 3.34 0 1.67 1.67 0 1 1 3.34 0 1.699 1.699 0 0 0 1.67-1.72 1.765 1.765 0 0 0 0 .23v-1.51z"/><path fill="#e6e8eb" d="M287.5 165.41h-30.18l-7.79 14.19h30.06z"/><path fill="#989ea4" d="M287.91 179.59h-8.3v1.28a3.5 3.5 0 0 1 2.774-.182 3.499 3.499 0 0 1 2.036 1.892 1.603 1.603 0 0 1 1.6-1.6 1.6 1.6 0 0 1 1.6 1.6c.097.01.194.01.29 0z"/><path fill="#e6e8eb" d="m291.93 473.491-2.24-4.47a7.665 7.665 0 0 0-3.03 4.43zM296.52 473.49c.432-.05.869-.05 1.3 0h2.93l-3.84-7.64c-2.75 1.06-5.29 1.77-7.22 3.16l2.25 4.48z"/><path fill="#e6e8eb" d="M308.53 473.591c-.86-1.95-2-4-2.81-6.44-1.21-3.48.07-4.741-1.39-5.341s-1.38 1.22-4.68 2.85c-.93.46-1.84.84-2.74 1.19l3.88 7.741z"/><path stroke="#e6e8eb" d="M35.27 474h288"/><path fill="#fff" stroke="#989ea4" stroke-linecap="round" stroke-linejoin="round" d="M316.56 439.441c0 7.29-4.68 10.14-8.71 16.4-2.44 3.77-1.73 6-3.32 6s-.81-2.26-3.24-6c-.69-1.06-1.39-2-2.08-2.92-2.15-2.77-4.23-5-5.49-7.74a13.397 13.397 0 0 1-1.21-5.74 11.908 11.908 0 0 1 2.82-7.71 12 12 0 0 1 12.81-3.73 12.12 12.12 0 0 1 7 5.91 11.947 11.947 0 0 1 1.42 5.53z"/><path fill="#989ea4" d="M304.44 444.2a4.65 4.65 0 1 0 .001-9.299 4.65 4.65 0 0 0-.001 9.299z"/><path fill="#acc9f8" d="M35.5 463.898h288v12h-288z"/><path fill="#3c4043" d="m323.5 475.898 28-12h-28zM35.5 475.898l-28-12h28z"/><path fill="#fff" stroke="#3c4043" d="M346.5 348.529h-334c-6.351 0-11.5 5.149-11.5 11.5v93c0 6.352 5.149 11.5 11.5 11.5h334c6.351 0 11.5-5.148 11.5-11.5v-93c0-6.351-5.149-11.5-11.5-11.5z"/><path stroke="#4285f4" stroke-linecap="round" stroke-linejoin="round" stroke-width="4" d="M72.16 393.059h145.13"/><path stroke="#4285f4" stroke-linecap="round" stroke-linejoin="round" stroke-width="2" d="M72.16 420h108.48"/><path fill="#4285f4" fill-rule="evenodd" d="M29.42 402.359a9.751 9.751 0 0 1 16.749-7.095 9.75 9.75 0 0 1 2.741 7.095c0 7.31-9.74 18.09-9.74 18.09s-9.75-10.78-9.75-18.09zm6.27 0a3.479 3.479 0 0 0 4.159 3.413 3.475 3.475 0 0 0 2.734-2.734 3.482 3.482 0 0 0-3.413-4.159 3.482 3.482 0 0 0-3.48 3.48z" clip-rule="evenodd"/><path fill="#eff1f2" d="M242.57 349.289h103.84a10.997 10.997 0 0 1 11 11v92.86a11 11 0 0 1-11 11H242.57z"/><path stroke="#3c4043" stroke-linecap="round" stroke-linejoin="round" d="m263.71 435.119 87.05 26.39M291.84 380.939l65.13 20.71M247.43 464.47 309.53 348M242.29 390.359l38.12 11.68"/><path stroke="#426aca" stroke-linecap="round" stroke-linejoin="round" d="m332.89 378.219-64.72-12.68-19.14 31.17 38.54 37.63 48.42-21.41a30184.59 30184.59 0 0 0-3.1-34.71z"/><path fill="#5085f7" d="m332.89 378.739-64.72-12.69-19.14 31.17 38.54 37.63 48.42-21.4c-1.026-11.574-2.06-23.144-3.1-34.71z" opacity=".5"/></svg>